<mxfile host="Electron" agent="Mozilla/5.0 (Windows NT 10.0; Win64; x64) AppleWebKit/537.36 (KHTML, like Gecko) draw.io/24.7.17 Chrome/128.0.6613.36 Electron/32.0.1 Safari/537.36" version="24.7.17">
  <diagram name="第 1 页" id="h8MiCFCT7ncTorw7g9-_">
    <mxGraphModel dx="1050" dy="629" grid="0" gridSize="10" guides="1" tooltips="1" connect="1" arrows="1" fold="1" page="0" pageScale="1" pageWidth="1169" pageHeight="827" math="0" shadow="0">
      <root>
        <mxCell id="0" />
        <mxCell id="1" parent="0" />
        <mxCell id="esjmUyft8LQVIh04YUm3-1" value="" style="shape=image;verticalLabelPosition=bottom;labelBackgroundColor=default;verticalAlign=top;aspect=fixed;imageAspect=0;image=data:image/png,iVBORw0KGgoAAAANSUhEUgAAAF4AAABQCAIAAAAfulVJAAAKqklEQVR4Ae2b/W9T1xnH+aPCysJLpLFpSBWjdGu3bpOmEVDVjm7rVrIKhLSNaVDY+KWsSzGBliqhlClvhaQJyQgDCkOQRZQ3xXbsxO9O7Pjec9/sa/tMzgkPD/f6Xp97fW+SH3IURcf35dzzfPx9Xs6xvaGy3iwIbKiuNwsC62gswFSr62jW0VgSsDyxga43CwLraCzAULqOZs2jsfR4dMLSCH9OrKZqkNWOu/7QeGHUVUBjhcGiKF0+bHXXC9Z4+mLl0NS1zR6H1dm6Q3mKpTbYSqAxW2KwuczdDDeaR/YQkO9o8OyxYZiGzt3wXXg0/BSv6PiIBk+3Wq2CJWAeAClxN7gFBoFhDY9rHpBfaPBEYfbMHjAPgBRR00wNnSzCLTAIGxMegZ/bJB1f0MD8YMZ1oTCbGYqx6cWTN9LvjyT29c/t7olsPRPaeia0uyeyr3/u/ZHEyRvpseAiu5LdxRg1BNQMHY/RABSzBzEzSqUSEMkT9fKT/IHh+NYzoZbOYMO/bV2hjq/iV57k80TVNA0YsZE9l4+XaMxcsFjY+1wsFjVNyxP11O0MJxEzsm1doX/czuSIwgBhBWFAeD4u5OMLGuZHwAVDIYr6yf3s9nNhs8FOj2w/Fz5/P0uUZQUBoLp0VhMNvEU2XB6nxNc+jzpFYH/96xejwQwxyMcTOt6oxoYL8yBN0wYe5VoDXDHFnoX57LauUO/DHATpUqmk63rzdDxA05BLnigHRxNmk7w9cngsUZCeR5/m6TSLpiGXxynxB90RbylYjfb6xeijpAjO1SQdb9CY4wvzI0VV3x6MWVnix/H9X8YU9XlgxnTgXeQMyU2hgYcBGl3XWeWiaZqqqidvpv2w337MkzfTqokOmyFMmIeOB2gwF0CjqurQk5y9Df6dvfw4p6pqsVhbWEBBiOn4iwbegUqlgksY5kqJvNR21oPixR2+trPhBUGuG3Rg2g3puFcNewaWDHalD/6zCq6EOTZ0K7/QAHuzZFRVjeeITyUMNt6+3xoIxXIEuxVUOjB5ezouVWMvmT+P+17F2HNhZ49dT9nHY+/RAHWDZFhWCmfJtz5uvIyua9v2c+GO0VTXZH5oWrwTk4emxa7J/IGR5HdcrblaA6FQtiYcTdMMJTKYYEPHjWrsJXNhar6u2fYHd/VER0KkajHTSpVemRZ3Oi8dL0zNuxaOl2hUVVUUxUWN9+5wslSpYcnK5QsPFn89lNjVHWkNhHb1RH87lLj4TWFBLlNKFb365mDcHrHh7NuDMUVRDBGHM4s3hQZyNkvYqqrOC9Km08686Q+jqXKVisXKkYnMSxb3fvt06IMbWUWvlirVd644CGSbTgdFqYbGyqcsZFo77BgNeCkLNFDjaZqmKMqXj5yVefsGYnqFhvLF75+fMbzh5pc7uyNxoaTq1Z9emjWftTry72BeUYzLzkqlAoZY0XGJxlzOMG869bWDcmbzmVBWLsul6q4e3k2cNy7N6hUaLZT4I/2pr9PufMobNCw3KYpyaNRBLPjn3Ryl9OBYyuoNr3v8b7fmKaV/uZ6pe9Z88NBonKHBPsUTbtyjMQcaWZb39s2ZJ2d1ZEEu/y+lWp21OT5bKD2Z12wuwKf29s3Jsgx5yrwW996hyuUyDjSqqsqy/GoP79bMnr4YpfTEzSw2g7P/6VSeUvryZ1zPerUngtFAgQPhxnc0iqLIssy/pDw0lqaU7ulb3s3ZcX7maph8dHeB0XnnSmIiIkEy+ujuwtUw2fEsVL87nKSU/maIK1W1nQ3LsmwTidccmmM3spTS3ReWA/Dh8RopvUI3Ln0gNR4mlNLxMGnpDG7sDOqV2vwPjy/H+B9+HqWU/pUv3KwVNPwOdXAsRSn9Re9ybHKkmvb+mjN2jCR5HJA51KqphmVuWZbbe3krjh9/MUspPe4q1hxfUtxPvuB6Vnvv7JpwqAPDDnaCs3J5ylWGepzV4kKJRzItncEDw7E1geboBJfImVWsrtl/mSuaAojffVWLwX+/xbuIPTqRXBNoBh8upxiwxKazrSuUEPWCVoHUY3MxO7Xj/Eya6HFR51+pDT5cWGU0rK7J5EX+Sbd0Brvu1yqUn13iKhR3dkfC+aJWrv78X1zXt3QGN50OZhfJStc1sLyEZbcsy5IkvTXAO++WzmBMKIXyRaaIH9l+HP7Ha2lFryq6s5X3WwNzkiQBGlzv+VjyAZpSqQRrKEmSuid5Vzd7l3Lwp1P5D+8sxIQSpTRF9K77+T19sZc/i7ACp+1suGMkeS+hUEpDueJrF7myEjhm92RGkqSVXkNhNMViEfJ3NCvAzOw7A08EqETD+eKlh4WcUtuyMre5QulP1zIMlv2YhrOz8wILNC52s1wuL9mXrgzLKLZWkCSJM0/dSyhJop+dzEOF8tLp4MGxVM+DxdEQ+W9MGZoWA/dyv3y2mDCY3fDl0Ykk8yabeq9atdp0db6VRSmFvWFYfBt8am5e4F9MNbTQ3QVtXeHYglDXm8rlcsNA42aXD6Ox8ilCyIe3nO3CuLPf5q6P76QJqeUmd/tYTaGp61MshUuSlM4J3/tk1T7Y/e65cK4g4twEn39jydh4k0s0WDjYp3AwJoRcfbrgInDaCIHz1MbO4NWn81aSwWjM8R4fcRyG2c0Qbgw+xbI4K3AIIZ23V8GtOm+nCCE2kuEJNM2qBnwKpyrI4pIkiaL4q0FnlQinNKwue29oThSXXckcZbBk7L3JPRrsU3WFwxI5ISS1UNjd0/iDFCtTHR1/42J0flHArmT4HgnPbjn4lEuHAjR1hYOL4xqdXOHNft+1s39wNpUrMFeC8hdHX0eSaUo1QAd/JoU30qECJIQsCuKJ6842Hxzp5fj1hCCKEGIMNR77FMGRZLxBw4Rj41aSJBFCRFHsfZBxtC7nobM5EBr4Jiu+yAU+Wqm7nmwYZZhPuXconKrs3QoSliiKT5OLR8bjnnwxqTUQOjIef5pcbMjFqSt5j4YJB2crCDqMDsgnklk8di2+OeDsiwMgos2B4LFr8UjmORRYK5n1wrhAwuaUTLMOZRaOFR2c0ZlzCYKQzgn9DzLvDc1tPcPFaEsg+Psrc30PMumcIC41HFzUpWZISa65eIMG4jEOOgbtWMlHFEVhqQ0/zp6YSHQMx9p7o690z2wJBLcEgq90z7T3RjuGYycmEsOPsuxKDMUgFg+5eIbGng7+Zqiy1LB/MREBI2a/+T8QYUoBKIY8DXG3Gb14E2vYKA09C+iAfFhqNzACTAwExoGJsPU0QAGxeMjFS9XY02H1jgEQC0DACDBJpiY/a0x0EFYMUPC3IFzEXfw2e4/G7Fk4MENByHbamYKYncxmcLdnKGq7LdDYlSwHMShQ7BqgNM/FFzQN6WAFASOMCRDgDvzGGX6NytwHfoIAwcUTLn6hwXQgbRnkA4CYlzGDMSkDC0yEBwp//WLwI3jZbDUMA5k78D1CvLkDgFh2h184sx+VNvzPrgf3qasU9jjzfJwe8RENmwoGxBZ4sBxlO4SYEVhu1YFbMBTsQc2LBQj6jsbgXAYFmTFh4819DNdAxCuxrCgas3xASgZTOV/C7bgDJnnVWQnVGOaK7cF9ey74Stw3DO7hy1VAA7PHFjrtwyD+dVYTDbaKBw2+fgX6awXNCpjq9BH/B0wH0BPIwRUpAAAAAElFTkSuQmCC;" vertex="1" parent="1">
          <mxGeometry x="100" y="260" width="94" height="80" as="geometry" />
        </mxCell>
        <mxCell id="esjmUyft8LQVIh04YUm3-2" value="" style="shape=image;verticalLabelPosition=bottom;labelBackgroundColor=default;verticalAlign=top;aspect=fixed;imageAspect=0;image=data:image/png,iVBORw0KGgoAAAANSUhEUgAAAdwAAAJfCAIAAABaDfBJAAAgAElEQVR4Ae29+ZcUVZr/339Q/cDx43jmMN8pu+YDQ39wRotmSlEcZSsEFEV2EcXWFhTUdkUElUZEEbRakEUb1AYUVNZi34qlitqX3DMicotvZz7weI2IjIzKzMi8kfGOw9FbkZE37n3FjVc++cTNiN8lsIAACFSDwODgYDAYjEQisVhMURRN06rRCuyzOgRSwrLqt8vvklhAAASqQWBoaCgUCkWj0Xg8rqpqIpGoRiuwz+oQEJyc+q2TV0HK1Tkk2CsIQMp+HgN2UhZfQxkEQKBiBAKBQDgc5txFMpms2K6xI6kIGCPlNBYQAIFqEKCEMucuUqlUNVqBfVaHgPipAClX5xhgryBgIAApG4D46k87KWewgAAIVIMAXeWjeRfJZDKdTlejFdhndQhAytXhjr2CgA0BSNkGTs2/BCnX/CFGB71HAFL23jErX4sh5fKxRE0gUCYCkHKZQHqyGjsp61hAAASqQYDmw9HPRlKpVCaTqUYrsM/qEICUq8MdewUBGwKQsg2cmn8JUq75Q4wOeo8ApOy9Y1a+FkPK5WOJmkCgTAQgZQbpJCvMG9dGAVKujeOIXtQUAZ9L2YmI821TA+MAUq6Bg4gu1BoBf0o5n2ftf86X713eHROQsnePHVpeswR8JWVLq9qLON+rllV5bpRAyp47ZGhw7RPwiZTNDjXYVtSTfdnwRnPNHho0Yk+NNyTyUDfQVBCoJQJ+kLLoTVGpopKc31VZfJdYm7gXr4wQsS+QsleOGtpZ4wRqW8qiKDOZDDuUZcQudv44Jn4LV8LVGnYn/9DhLqRSpiePyN96tBAEapJADUtZVCR7kzTEYmUXa8KimhbhxV+fYciVUJ28C3G/ko8ZSFnyA4Tm+ZFArUqZzciutNQx2ZYkvPdi4LUDPYu/6Wz+sn3cJ1f//f3L//7+5XGfXG3+sn3xN52vHejZeylAW9K7SOgF1SzzqIKUZT46aJtPCdSelFnH5nwFCTSRSLCLhyLKjnNDC3bf+Pf3L9++5lLBf/UfXF749Y2d54aGIoqqqmxnqtlzITOk7NPTHt2WmUCNSdlsZDFApthW0zRVVYciytuHeh262Czr+g8uv3OodzCSfQS4pt3MaZjVLLZHwmEAKUt4UNAkvxOoVSlT1oKNLOo4Elf+erTv/65vM6t2uGv+7/q2j472ReI3o2ZOaNB+qQ3sZQmHGqQs4UFBk/xOoJakzPqzMfLZ7nDT5mvDla/99vd+du1Sb8QQMnvCy5Cy389/9F9CAjUjZRsjU75CVdVtZwZHrnOUO7a3sPnV+g8ut5we5MuAiUQimUzK72VIWcJTEk3yO4HakHJBIw9F4kv+3mmWaXnXPLO3Mxj9Ncssv5chZb+f/+i/hARqQMoFjXy2O3z3pqvl9W++2u797NqZrjCnMiT3MqQs4SmJJvmdQM1I2ZxHpqxFXFFmbe/I51A31j/2VUdc+fXSn+hl/vyQZNhBypIcCDQDBH4l4HUps+ZYyslkkmYiq6qqKMprP/S4YV77Ol/7oUcxeVnCyRiQ8q9nAkogIAmB2pCyaGSWsqIou84N2tvTvVd3nB1UFIWmMPP8ZdHLMgwASFmGo4A2gMBvCHhaymKYTH5hI6uq2jkUvfPDMkxGLk7cd37YNhCKWSaXudm/ORLV+ANSrgZ17BMEbAnUgJTFMFlMXLy8vwqJC9HgBZMYtkemEi9CypWgjH2AwLAIeFfKHG+m02lDmKwoyo3BiEtTkkXt2pdHrrvcMRgRkxjUznQ6zY0f1sEq+8aQctmRokIQKJWA16WcL0x+/lvXZyXbG5lefWlft/0Vv1KPX2nvh5RL44d3g4ALBDwqZY40DWEyzbho64vc8V7hW745sWqJ24xcd/lyXzZYVlXV8DM/7oILR9VplZCyU1LYDgQqRsDTUs4XJn96or9EmZbx7Z+e6Jc2WIaUK3aiYUcg4JRAjUlZUZR4PF7hX4vYG3zW9o54PG7ILEsyNw5SdnqeYDsQqBgBr0uZtJJMJun3e4qi9Iei/7p22LmLs33qx60Be73evubSptbApUGt4GbiBv+69lI4mpVyvgxGxY61eUeQspkJ1oBAlQl4UcqcjaWEsjg3OR6Pf3WmmB+MvHd4UNf1z04FRZ8ayp+dDuq6vubwsOv/7tJQPG68UZEMczAg5Sqfftg9CJgJeFfK5oQy5S7ePljk9ORNJwO6rm89be3lrTkjbzpZOJo2qPz2NZfePtgjZwYDUjafEVgDAlUmUDNSpnkX8Xj86b/fMGvR4Rrystm8+dY7rPbpv98gKYsZDBnSypBylU8/7B4EzAQ8LWVyiphQjsVi0/7W7tCVlpuZI2L7CNqyEsPKaX9rj8ViPAfDfN8483GpzBpIuTKcsRcQGAYBr0tZTCgrihKLxf74Sam3TiYvrz82dPuaS+uPDdnkNAzyzffnHz+5KkqZJyxzWnkYB6ysm0LKZcWJykCgHARqScrxeDwWi5XlJkTk5SOdcV3Xt+TJMudTsHn9nR+2xWIxm2t95TiSxdQBKRdDDe8BAVcJQMpmh96+5tK/rLnUEUrout4RSvzLmmFPsDPUCSm7OoZROQjUFIHak3Lp6Yvb11z6/Ex29tvRrmyknG8+hsG8Nn9S+gKRck2dOegMCLhEoGakTPPhYrHY1JbrNn508lLZc8pTW64jfeHSAEa1IFBrBGpGyqqqUk55we6SnsjnxuyLBbs7IOVaO3PQHxBwiUDtSXnFP7qchMOW2+Sbj5xvvWUl5pUr/tEFKbs0gFEtCNQagdqT8vbTA2YtOlljb15zBO2kTtpm++kBSLnWzhz0BwRcIlBLUqZ5yr1D4SJuSLTuSPbeF5/Y/or6s1PF3PviX9de6gtEME/ZpQGMakGg1gh4Wsp8QyK+RVwsFotGozO3DftHfZ3h5GbbuxFRzLvldPD8gOo8Rr59zaWZ29qj0ShLWfzlCH48UmunE/oDAqUTqA0pJxIJvvdFNBrddKx3WN50deNNx3qj0SjufVH6WEUNIOALAjUjZU3TeFbctb6Qq54dVuXX+0OUUJbwPvf4RZ8vTnJ00lsEvCvlTCbD6YtEIkEZDJoVF41GS5mDMSzn2m+84h9dlLuw+eVIJpOp1piBlKtFHvsFgbwEvChlXdfpPveWT02Nx+PRaLS9P1SWm2DYO9f+1Ts/aOsYCFnmLlKpVNUTyrquQ8p5Twy8AALVIuB1KRuCZc5gRCKRt37stpem26++91NPJJKddyHnHe4h5WqddNgvCNgR8LSULTMYNDEuGo32DIZG/7XNbfPmq3/U+rbBYFicd6Fpmjj1gh9qZXd4XH4NkbLLgFE9CAyfgEelnC+DIV7ui0Qie84PlH6Pt3zatVn/L2su7Tnfny9MliR3gUh5+KcL3gEC7hOoASkbMhg0N44mLEcikTWHqpDEWHOoOxKJ2ITJMiSUIWX3Ty/sAQSGT8DrUuYMRiqV4qeQcGY5Go2Gw+FHt5d63ziboNj80vxd7eHwzcSFOZsshslVnHdBIwXpi+GfMXgHCLhMwLtSFjMYlsEyTY+LRCLdA8Fxn1wx29ONNfd/dq0/EBITF6qqGrLJkoTJiJRdPrdQPQgURaAGpGwZLIs/8Mt6eTD4yJeux8uPbb/ePRikxAX/hE80slRhMqRc1BmDN4GAywQ8LWXLYJmTGHyH5Wg0GolEAqHwqn2dbkTHVOfKfZ2hcJhTyYZfi9ATrNO5heZduHxgHVWP9IUjTNgIBCpJoDakTMGyTRKDvBwOh1tO9hZxDzl7lf/busvbTvWFf2tkRVFsEhdVzybTGIOUK3muYV8g4IiA16XMwbJ9EoMnY4TD4fNdgRe+vTFy3WV71Tp5deS6yy98e+N8V6CgkWVLXNDgqGUp8zxwFEDAWwRCoezvgOleOclkkq9BeagXlBOgMJnmYIgZDHEmRiS3hMPhUCh0pWdoxXcdI9de/D/vFv5nFvS/rbv00vc3rvb+qmO+x4U5RiYji2wdfWC6v1EtSNlDIxVNBQEnBGpAypy7sPcy36soEomQl4PBYPdA8G+tPfN2Xv//1hVW8/959+K/rb04d8f1ltae7oFgKBQyB8geMrJXL/Q5GdbYBgS8S6A2pOzEy/lC5lAoFMwtu870rvz+xoJd7VO+uHrPx23/tjar4Hs+bpvyxdUFu9pXfn9j1+le2jKUW8jIhit7hjyytDEyReFeipS9e46h5SAwLAI1I2V7L/OjSShe5hQzRc0UOLOdybzm/7KLDTrmWw6RkTVNo7kWkhvZG5HysEazuDFntVAAAW8RCAaz82pp/lYikWCPeKsX3FoO/ZK5JZFbyMg8c5nzGDQlw+BlSzWHby2UlY7mllhuofnInLXgWck8B45FQcGpVP9lXKlUatVvl99VvaEMrmCBDz8KIFADBGpMypxWFq/40S3wLdVMITPbmQV9S8K//p90TMkK8ZqeQcd0HzhzpFx1xVk2QFIpw8I1YBZ0oWgCtSdls5dpMoaoZiW3xHMLBbxsZ4qCWcFsYVrPG9N7qR4xj8w6Fr9zkGQstVjdldJJ2V7HDke52CuUQcBzBAKB7KQuetaymAz1XEcMDab0BetYNLKaWwp6mSws/pdELOYrOIlMWQu+XbLZyGyb6lrYsHcR2qrfLlVIXzAjc8FGx2IfUAaBGiBQq1Lm9IWYXM6nZpqYwc7lcJgL/BIbOV/WgiNl0ohZL5L8lo/sLA7g3zp5VUWlbImJVlrqWGy3ZZk/k1EAAc8RGBoaogkYfK3Pc12waTBd6OP/arcWCpbp0p8YMovyNZRpM3Ixvf1WZdnniYgxMltC/LWIWTuGoLUqf3JTq3mhz4wmn47F5oplmxGAl0DAcwRqW8p0OFjKHCmTT1nNop1ZvvkK/C5OWbCUaXdi7sImXpYhZBbNVp1I2dLI5uhYbCiVbc408XijDAKeIzA4OEjX+jit7LkuOGkwR7VcYLdSIZ+CxfW0JddABdq7qAiShlkslv6pSoDMOxVdVwUpWxIxgBObaMhJMXT7EWA4YPgTBCQnMDAwQGnlaDTKd5uUvM1FN88g4oI6ttye1WxWASeU2SQGw1haiBVZ+QK3swrpC0sWBl5i+1jBVDDTN3wPsh8lNocWL4FAdQn09/dTBoMeliHmTKvbMFf3Lsa/VKbdmdeLa2gb88nOc5PZG6JMDJ6xdFHldUx7FNtZ0UjZTMGASWwZYzXr2HwweDq6qwMIlYOAewT8KWXmKTq3YJnfRQUSghixGewhisXgHLOUquJlsYWVk7K58wY6YrNEpiJrUceGA0N/Fjyc2AAE5CTQ19dHaWV61qc45UvOBrvXKsN0C/FP3ql4+otaEHUhakTUi8E8ZjVV3sti86omZQMXbpPIkfnyz9gTiaSWSKpaAv9AAARAgAloWkJLJBPZf9lFnI8hKoU9Y/CPwcu+kLKhz+J9pGx+i8n54kQSIsbnEAiAgFMCiWTSkNNgNVt62SyoCnuZW1WhC33mDosfU9wapiYGyFrC6WHgz0wUQAAEQEDN/ZTEMmRm54giMmuqkl7mJlVHyiIIborByPQpl0ymMLZAAARAoGgC2YRnbqFQjz3D5hF1ZPByzUrZ0E8RAXNhUgSOICJ3XPRAxBtBAASYgCGVwbZh/4hSMviqYl7mxlQiUjZ0kvvPjWBGopETuJqHi5kgAAJlIuA8Xjb4qgalbOghG5kv7lkaGXlk/pBHAQRAoCwEtNyUDE4xs3koOhTVZLBWZbzMQarrkbKhe9xzbgGhEWPk7PTDMn08oh4QAAEQIAKKejMtavAyu4jtZLBWTUnZ0DfuM1MQjUyz31RVxcU9nEUgAAJuEMgmRdWsmykK5N9ks5HYUQZ3VcDL3AZ3I2VDx7jDtHv++oAw2Y3xhzpBAAQMBBRV4weUkHbYQiQldpTBXbUpZe4tfyCIYTJ9r1BVNYFZyUjdgAAIuEYga5hcsMzxMomIvcSmEr1cI1IWuyT+fs8cJrORc8lk/FQEBEAABNwikJ1EkFsMUuZbfVpKuQJ3wedPBRfTF6KUuZ+GSReGxEX2XoWufUKiZhAAARBQtUS+Z/qRFkVZiRJzO1iumpR5x5y7EMNkRVEwGQ6nDQiAgHsEtMRNKYtJDBkyGOxGtyJl8RMmX+7CHCYjUnZvLKJmEAABIkA3/xSlbJiGwcGywWOuBssVlTL3kPfKYTJPg6OnJWYfgYP0BQiAAAi4SYBuVG2ZWSZHsbL8ImWDkemJIfTZBSnjMwkEQMBtAvz0gOEGyzUbKRukTJ9XiqLQwwXcPh6oHwRAwOcESDX8CETDNAybYNnDUjbE/PxdgHprljKHybFYzOfDBd0HARBwm0AsFjMEy+IPSWyk7OrEONov/bf8j4OylDLvkqXM8y4gZbdHIeoHARBgAmYpU7BMamJTUTRpsJl7wTLv15XZF2I3CobJfIkvHo8jUuZxgwIIgIBLBEjKxV3u85eUY7nFpcOAakEABECACJBqIOU0Beecu+DJcGLuIhqNYtyAAAiAgKsEotGoOYPhMK1cy5GymFCmi6GxWAxSdnUsonIQAAFVS7CUOVgmHTn5CQmk7NZNSTA0QQAEfEvAd1IWr/LxD6z5wmIymeRfV4szlCnLU5ZIeTAQenTRi3X1jXX1jfV3P3zizAVx8AVCkfnPraJXzf/d8uXX4sbOy3v3H+LaXnh1TTReiTsrDQXDy19fd/voe5eseLNvYMh5a81b9g8Gd397YPZTy7/Y+a35VTfWxBX19Pm2N9/f9PiSl7r7BtzYBeoEAUsCJGXOYJh/2se+quQEDN5p+WdfVF3Kp85dahg3mRW5cctX4oFxQ8rRuLLijfd5j/dOm9ve2SPu1KXyz8dO3Taqifb74y8nStnLli+/pnqK/lga7t67+wYmTJ9fV984Yfp8SHm49LB9KQQg5eyHjcOrfGWJlMkv46fMeejRp+rqG+c/tyoQilgeQjZRiUbr6u1/YMZC2teIhvEjGsaXWKFla80rh4LhZ15+uyyRMqOAlM2csabGCERzC0fKfCfPfNf6DIGmS2nlCkXKBScpG6ZelC7lSDS+9KW36uobX1294cNP/1ZX3/hfDz7Wdq3DclSxiUp06OETZ+4YM2F0U/P3P/zyx8lz6uobV6/fbLlHaVcyCkhZ2mOEhpWLwHClnE6nRS9XU8qr3107acp0+jd3/uKhoYCT1oitH66UIxHrkNb5wbh+o5u0uHf/oUNHTo5oGF9X37h3/yHLGthEJUp5/eYv6+obH130Ymd336IXXqPyYCBk2OmVazfefH/TuIcfp0RB09S5W7Z9EwiGxc3iinrwSOuS5W/c2Tiprr7xtlFNjy956eCR1rjy6xO++Ys/J0xGNzWfu3RFrIfK4Uhs74GfZj+1fOTYiXX1jSPHTlz60lunz7dln1SWuwsXE+CqxIL4JSMaV3785cSS5W/8533TaZv/mvjoq6s3XLvRzfvlhq1ev/nK9c6lL701cuzEEQ3jp85dduzUedqMtxF3JJZLPBbcGBRAIB+BSCTC1/ooLqQ7E+WLlH0h5Xzz4UqX8ncHfh7RMJ6iYxb0q6s3sIbE48RKKkUEQ8Hw7CUrODomQZst+eMvJ8izooDq6htXvbOemxSNK++s/5Q+SAybiS00e828O1VLBEKRp1e8aainrr5R3JgJmDczZH5+/OWE5TZj7591/tbnATfsgRkLx94/S9yed8rbiK+KZbGnTAYFECgjAVHK8syKG176YvW7a8sbKbskZUXVXl29gQNVTmU8MGNhV2+/+aCykkoRwblLV0Y3NXM8TqmMuvpGMQ8QikQpgh7d1Hz89HlF1eKK2tndt2XbN+9u+IwbdqHt2pgJM+rqG+c+83Jv/6CqJSLR+IW2ayvfXn/oyEnejAt80ZKVxy+pWoK/KKx8e30wnP1VTiAUOX76/J9fe481ytszCrHZ/KqqJX4+fnrVO+svtF2LRLP3vA6Go3/dvI0+PzhXIwp3dFPzgZ+OxuLqlm3fGDajanljXOgTOaNcAQKQssWFPpek3DcYmPrksxy0qlqC4tY7xkw4fOKM+WCziUqR8o49+8TMNYfnS196i/xFNqR5eKObmn86etIybFe1BPt99pIVnd195gYb1thLmWPbP/9lrSFJYqhH1RKMIp+UzW/h1vIUQPbsyLET9x86Sm/hzV5+8wOx47wxpGxmizWuEqhlKafT6R8P/rRo8dLJUx+ZPPWRp55+9tBPP4v5l3w5ZU3Tjhw9NmnK9D17vhV/zldi+uLEmQv1dz8sTn7guHX95i/Nh5lNVLSUo3HlhVfXiN/0OTz/4+Q512/lWxVVe3fDZ/wlvWnq3NV//ezU+cuG6cy9/YNT5y6jzW4b1fTP2daf79jT3tkjukzshb2UL19pv/t/H6PaRo6duPBPr+7+9gAF4GIlVGYUNlKmnHjT1LmGBAunni09y1LmzWiPlhubG4Y1IFB2AjUr5Uwms237jslTH+GLgZOmTJ889ZEvt33FXraRclvblVmzHt+y9Qu6ORz9xrpEKW/c8lVdfaNow86e/nunzRWlKR5gNlHRUm7v7KH6Rel/2rKrrr5R/GxQtUQ4Evvgkxa64MZ2/sOEGd//8Ivo3PbOnrnPrjRY77HFy69c7xRbTmV7Kata4syFtklPLOXdUav+9Oq7PX3Z3Ij4j1FYSllRtW1ff29oPFfLtrX0LKQsckZZBgIsZZ4VJz6CRLyBJxtMnL/gZL5DEduUIad84cLF6TMemztvUWvryXQ6nUwm9+0/MPPRJ+bMXdDd00N94C4Z5ilrmtbb2zdn7oI33nwnHo93d/fMX/DU+r9+VIqU2VAsC7FgOTGOTVS0lH/85YRBoOJOOdnKAzESjZ86d+nN9zeNGj+VtmwYN/nUuUu8ARX6BgP7fjy8+IW/8G9DZi9ZMfTbeRqGrIjl7Ivs09RVrau3f/e3B2bMf56buuKN9w1BOqOwlDJ/9oy9f9bBI630XrNtIWXDccSfchKoWSl/unnL1OaZx4+3ip8JW7Z+8fDk5l8OHyko5WAw+NzzLy5fsTIYDJ48dXpq88zFS57p6Sn+h3Bt1zr+68Gb39ZFM3J5x559hiHCJipayqvXb+b6zYWpTz7bNxgw7JT+HAqG5z67kt7yxY69ltuoWuL0+Ta6ijhmwowLbdcMm/HnkOWFPsPGqpb4/odf7hgzoa6+ceLMRYY8xv5DR6kxllJm/4pzRX45frr+7ofFbyHDknIgGJ77zMv4RZ/5MGGN2wRqVsqWUzJaT56aMm3G377cXlDKqqq+8eY7zy57fnBwcPtXO5c8/eyTcxeePHmq6ONBd58wX9PjtDJfj+JdlChlvsmGeE2PpkzQD1j4zhvdfQPPrnx797cHunr7KVlx5dqNhx9bYshyHDpy8s+vvffzsVP0E8S4on67/2dKGlhOILGX8pe7v39j7cenzl2i643RuPJpyy4KljnhwCiYkuU1Rp4W8vBjS651dEXjyt79h+jTomgpc/L9jjETdu7dL07E5lahAAJuELCUMk9V9nD6wkbK27/a6UTKWz9veXzO/Pb2jpWrXtu2fcezz73Q8rdtxR0DvvuEWV78G2h6iUVmDmwN89gKtoRvsmGOLln39BKHkOadLlnxJucleL6EYbN/JjE+37GHU8/5NqN3cdTPbTDUdmfjJJ4awX3sHww+tni5YUt2dzgSe3bl24ZX/+OPU8jLvBl3U5xQwVE2b8Y73bv/EGdUuHJuP2+GAgiUl0DNSnn9Xzca0heZTGbzZ1unTJtxovWkEynvP/DD9BmP/fDjwaeXLrt48dLmz7b++cWXiqPP5jWHwzxBgoLoMkqZrMfhsNhymgdSV9/IQbRh6sKdjZNmL1mx7+ARMbfLP+cTfzW3/PV1F69cYyOrWsKhlG/+nG/JCvrRyoiG8U1T57794af5bpbU0zf4+nsbeddiCKxqiYGh4Jvvb6Kq/vO+6e+s//RaRxdNvmbbDlfKiqrtP3R06txlnDr/529bIGVxIKHsBoGalfLx461Tm2fOX/jU5cttdKHv22+/nz7jscVLngkEAk6kfKL1ZPMjj65d98HzLywfGBg4cvTYo7PnuHEMUCcIgAAIMAHvSTkej+u6PjQUmDt/sTjdjcp/Xv4ybZBMJte+/6Fhg+kzHjv0089kZL6ZsvkucZqmqap6+XLbzFmPP/jQlL9u2BiLxbq6uufNX8zgUAABEAABNwjUrJR1Xdc0bdfub+bMXThpyvRp02eteuUv7e0dbOSCUu7r61+wcMnDk5t/+vkXmqf87pp1bhwD1AkCIAACTMB7UhanuBVRdi5lVVUVRSnjj0cYOgogAAIgkI8ApJz9BYn5xyOWz4Iq5ccj+Q4A1oMACICASABShpR/84NmcXCgDAIgUHkCkDKkDCmDAAhIRABShpQlGo6Vj0qwRxCQjQCkDClDyiAAAhIRgJQhZYmGo2wxC9oDApUnAClDypAyCICARAQgZUhZouFY+agEewQB2QhAypAypAwCICARAUgZUpZoOMoWs6A9IFB5ApAypAwpgwAISEQAUoaUJRqOlY9KsEcQkI0ApAwpQ8ogAAISEYCUIWWJhqNsMQvaAwKVJwApQ8qQMgiAgEQEIGVIWaLhWPmoBHsEAdkIQMqQMqQMAiAgEQFIGVKWaDjKFrOgPSBQeQKQMqQMKYMACEhEAFKGlCUajpWPSrBHEJCNAKQMKUPKIAACEhGAlCFliYajbDEL2gMClScAKUPKkDIIgIBEBCBlSFmi4Vj5qAR7BAHZCEDKkDKkDAIgIBEBSBlSlmg4yhazoD0gUHkCkDKkDCmDAAhIRABShpQlGo6Vj0qwRxCQjQCkDClDyiAAAhIRgJQhZYmGo2wxC9oDApUnAClDypAyCICARAQgZUhZouFY+agEewQB2QhAypAypAwCICARAUgZUpZoOMoWs6A9IFB5ApDy8KQ8hAUEQAAE3CQAKafT6XQqt9JKLtoAACAASURBVCRzSyKR0DRNzS2KosTj8VhuiUajkUik8h+b2CMIgICvCEDKkDLSFyAAAhIRgJQhZYmGo68CInQWBCwJQMqQMqQMAiAgEQFIGVKWaDhaBg5YCQK+IgApQ8qQMgiAgEQEIGVIWaLh6KuACJ0FAUsCkDKkDCmDAAhIRABShpQlGo6WgQNWgoCvCEDKkDKkDAIgIBEBSBlSlmg4+iogQmdBwJIApAwpQ8ogAAISEYCUIWWJhqNl4ICVIOArApAypAwpgwAISEQAUoaUJRqOvgqI0FkQsCQAKUPKkDIIgIBEBCBlSFmi4WgZOGAlCPiKgPxSfv/991cJy+/00paMsGR9nFsqc5N7RdXwDwR8TsBXei2us/JLedu2bYKTV3lSyoqqlfZRgneDgLcJZHQ9k8kkUyktkaSPpeKE5Yd3yS/lnp6ev/zlL+xl70mZhqC3Tym0HgTKSiCZTEHN+T5g5JdyKpVqbW31qpRp5MUVtaxDGpWBQC0QQNRs6WVPSDmVSvX29m7ZsmXNmjUei5QVVYsraiyu1MI5hD6AQLkJJJLIZhivtHtFynQpLpVKeVLK0Vi83IMZ9YFAjRBAKsMQL0PK2ekX7s2+UFQtFlcg5RrxB7rhDgHEy6KXIWUXpcy5i0g05s5gRq0gUCME1FsTRkU9+bMMKUPKNXJWoxteJxBXVEXV/ClisdeQMqTs9XMZ7a8RAolkEl5WtQSkDCnXyCmNbtQAgVhcwfxlSBlSroFzGV2oEQJ0GcbnSQxIGVKukfMZ3agBAslkioJlMcfqtzKkDCnXwLmMLtQIgXQ6HYsrPs8sQ8qQco2cz+hGDRDIZPRoLA4pR6PRWG6Jx+OKoqi5RdO0RCKRzC3004qsvHKLcO/LjEvDgH+/Zy546Rd9mKfs0vhAtTVMAFJGpJz9oHHpF32Qcg27A11ziUA0Fvd5WhlShpRdOrlQLQgUQyASjUHKSF/UfqTcsmNPXX0j/Rvd1Nx2rcNwuhTcwLB9vj+HgqH7H1mw8PlXcbfSfIiw3p4AS9m3E+MQKcseKZMuDx8/LQ7lw8dP19U3tuzYI660KRd0bsENbCoXXypaynFFXfj8q/zJwQX4XcQ7rPLxU+fuGDOhrr5x38HD4hslR01S9vO1PkjZF1Lmc7Jlxx7LSNn5BrylZQFStsRS+ZWZTOa9j7ZMnfPsQ489tfz1tclUitsAKUs+8RlShpT5bM0WClr7N1ub/ihaylwTKQMBMgMprhAMhafMeaZlx56NW7+6r3leb/+guR45USNShpRrRModnd3zn3vltlFNt41qmrP05TMXLmcyFjMWCzo33waZTObMhctzlr5826imEQ3jJ85ctGvvfjH+onO+ulLWtMT3P/zSPO85y0a+tmbDwudfPXXu4r3T5o0aP/VI65mjrWf/3/0z7nlo9uWr7WZnGdZQ7HnHmAmtZy6IL124fLVh3OT3PtpCwO1BmfmQGe9/ZMFQMETVtuzYc/8jCwYDwaOtZx967Km6+sZxkx4/fOK05QEVWyKWj586N7qp+ezFttYzF0aOnXjgp6Piq1SGlOUMmSHlWpDypSvX73pgFudh6+obR46deOhIq/k8zOdc3jLfBoeOtI4cO1HcRV1949sffGLwcjyuzF+2qpQ4txRTUKpdbOSIhvFff/cD9e61NRsenLX43mnzaINZi/78P1OfpPLr7210orzWMxfuGDOB/UvVftqyq2Hc5AuXr9Kf9qAcSnncpMffWPfxiIbx3Je7HpjVfqObD1PBwtqPtjbPXRaKRAcDwYkzF1l2sBTUBRtQ9AaIlCFlb0iZT06xQBf66NS664FZR1rPJFOpdDp94vT5CdMXPLH0JfOzAfM5l08hyw16+wfva543uql538HD4i5EGVEN1JhX3lnvxHG8U7FQiilaz1z4YFNLb/9gJpNJp9NHW8/e9cCsp158XdU0XddfW7Ohrr5x0uynr3d0zV+2qq6+cf5zr3R2902Z84zDT5FYXHli6UtT5jwTDIWpzdFYfPZTy5956S1NS+i6XhCUQynX1TeOaBj/7l8/C0di6XT6s21f19U3bv/6exGUTTkUiTbPXbb2o626ridTqZVvfzhx5qLBQNDwllJQG6oq45+QMqTseSm3XesY3dS8a+9+8cTYuv2bP0yYcbW9U1zpJGVsKeV9Bw/X1TcadnHgp6MjGsYbZoDQef7amg2G/Tr/s4ymMFT12poNIxrG7zt4mNaPHDvxxOnzhm0KtnPX3v0jGsbzZJizF9saxk3m5EBBUA6lnAW7cy9/sNEhNqC2aSqlLLiR+w4eFtvMbxxu3/mNrhYgZUjZG1LmE4zOB3FKnPk7O0XT5uxn0VK2NHVHV89//+9jBv/SeW5YOaxzuBRTaFpi5579E2cuEr/4cxT82poNlLqlXYhl3qZgUykW5mzA2o+2ioFzQVAOpWw/Q6ZgI9d+tFW8uEdHypB10XW9FNQF21D0BpAypAwp/+b0sdSK5Uo61d9ct0l8fxWlnEyl3v7gEzG9Q2UWblmkTNkAUh7NcPi0ZRcTKAiqAlKm3IWZg/jhQQ2GlHGhj4duwYL5PkS8xnc3JCr445GzF9vq737Y8AOBfIgtrSFubLnBN9//aE5f0Jfib77/UXx76eWiTUEfEg/OWnzl+g364m+oqixS1nX9+KlzNJ/h+Klzf5z0hHj9rSAos5SvXOv4n6lPGmZflBIp09VIs5TN35wMfEo/dmWpAZEyImXPR8oUr02YvuDQkdZEIml/Ylg6V3yL5QbtN7rvemCWeC3x2Mmz9zw0+56HZotK0nV9YCj4yPw/zX12ZThS5AO8izYFJV7nL1sVDIUzmUxv/+AHm1rubJxU3khZ13W63Pf08jdXvLFu5dsfivNPCoKi3o1uaj528mw6nT517uKE6Qvq6hvLKOW1H201O50+uenSHx/uolFzDW4UIGVI2fNS1nXdchoWy4jOPXPoxCIouEEmk2nZuVdM1P5zMsBto5q2ff0dX4yi85MS3GYpFDx787WBe1GwhnAk9sj8P4ndHNEw/vbR93IN5YqUKTU/omH8HWMmGHL9TkB92rJLbOTopuZxkx7nY+Ek72+DgmaDcJd5S8pp0CS50lFztW4UIGVIuRakTD9YmLdslTiVmM/MfCchi6DgBrqup9PpH385PvmJpSMaxtv8PqXoSDlfG7gXTs7/zu4+/gXNrIUv/HLs1CvvrOcayihliojNWVonoBRVW/fx5yPHTrxtVNP8517p6OzeuPUrPhYlSpki4o1bvzLgymQyr7+3sf7uh89ebCsLakP9ZfwTUoaUZZdyGYc7qioXgTMXLjeMmyxe4itXzagHUoaUIWV4YBgE0uk05dMfnLXY8oYSw6gLm1oRgJQhZUjZ6szAOhMB8Vt/vl+xm96EFcMmAClDypDysE8bf76BpHzbqKZZC184de6i4QqnP5m40WtIGVKGlN04s1AnCBRJAFL2npTDpS0hYQneWgK5ZSi3DA4ODgwM9OeWvr6+3t7entzS3d3d1dU1rJ8A4cGpRZ6XeJuPCUDK3pNyrLQlKiyRWwt5nnQdDAYDgUA+QUPKPtYFul4JApCy96SslrYowhK/tZDnSdeRSCQcDucTNKRcifMS+/AxAUjZe1JOlLZowsJ6J1GTomOxWDQapRia7BzMLRQ+17aU6acf9zw023zPTx9bAl2vKAFI2XtS5lsTFVdICgvrnURNjlYUJR6Pc+xMgTPbubalzHcBdX7r3oqery7vzHy3IJd3iOotCEDK3pNyprQlO9ni1sJaJ1GTozVNU1WVY2cKnCl2DofDtS1lipQnTF9wvaPL4nQptKq3f3DR869t/+YfhTYs/nVXdwEp04ERZ2SLt+ngH6wXf/wcvBNS9p6UHRxWu01Epd+Sc5rszGomL5OaDVFzbUvZDpyD14b7gAwHVRo3cXUXkDLhhpSHdZqXfWNIOWtmSNkov6L+dtWY1CJXdwEpGw472bkyATLvGpEypOwBKWta4vsffmme99xto5pGNIyfOHPRrr37xdv46rre0dm9bOU7dJe4e6fN23/oaDqd5oFecAO6lT59V8134818u8gXWBluE2zfCxLim+s2dXR2053eRo6duO7jzxU1+8xTh7sQ+1tEmdqwbOU7N7p6//TK6ttGNYltoArphnxzlr5sPhZ0l33zHdp0Xd+49av//t/HOrp6HLbKcE8+esArv7cUklyJkwKkXPYo2EmFkLIHpMzX3zjBN6Jh/Nff/cDn1ZVrHXc9MItfratvNIi14AYFpWxTg0Nj2veChDhu0uOjm5rFjtCd2BzugoEUV6A2PDhr8T0PzTa3geq0vHX12x98kkyl6J7Fls8nfG3NhgdnLeZnYNs3L5lKrV6/2XD3arHaUkja79rwKqTsxKFl3wZS9oCUW89c+GBTS2//YCaTSafTR1vP3vXArKdefF3VslEk3YG3/u6Hj7ZmH2ZBD93Y8Nk2cVpby4499hvw2Wj55BEnu9B13T63YN8LEmJdfeOE6QtOnbuYTqfPXLg8uql5/rJV8bjCzbPfBW9WXIHbcM9Ds4+dPJtKGdtAT00d3dS87+DhZCqVTqdPnD4/YfqChnGTL1y+qmraUy++Tl/2//kImGUr31n++tpkKkXrxeNl37xDR1rvGDNhwvQFx0+fT6ZSyVTq3MUrf9v1Lb+rLCS5NpsCpFx24TqpEFL2gJQNp435VPnm+x9HNIx/96+fif4S31VwA944n5Sd1DAsYxp6QUK864FZl65cp8bQBuLd3wt6n3tRXKFgG/YdPGx+VuGBn46OaBhPkwhfW7OBnu4xMBS8r3ne+ClP9vQNxOPK/GWrxFDXpnnJVGr562tHNzVfbLvJwWZjeqk4kgWr5awRcspOTFrGbSBlD0hZ0xI79+yfOHOR+JVWPFVicWXFG+voEU1LXnzj4OETmpYQz7qCG/DG+aTspAZ7Kdv3goQodqpaUrZpgyUcSiWTc1t27Lmved7AULD1zIWZC59/+LElh4+fpq45nPqd73lOfIB0XS8LSbHCfGWD7vNtVt71uNAHKcsu5WQq9fYHn4gpTiqL7tB1PZPJdHR2r16/mZLL9zw0+/LVdvFsKbgBbWzpHXqpYA02Ui7YC69L+c11m3RdP3z8NGXzN2796qMt219/b+N7H21pv9H93//72KEjreLhyFemxLTh4Iobl4ukWGe+MqRcxvjXeVWQsuxSpkDswVmLr1y/QffwtT9V0un0oSOtDeMmU0LTfL7Zb2AjZa4qXw0kZcMjk+ldBXsxLClb7oKbV3ShYBu++f5Hc/pi38HDIxrGf/P9j7quX7pyfcx903/4+djTy99sPXPh8PHTzfOeO3by7B8nPXH2YpuThlEC+n+mPtnd22+5fblIWlZuWGk/0gwbl+tPRMqQsuxSJtPNX7YqGArTRbwPNrXc2ThJDKY+/nzHtwd+DkWiFDK33+h+cNZi8cpSwQ34jMonZSc19PQNjJ/y5P2PLLhyrcNwD/iCvSgoRGqhzS64C5evtt/z0Ox7p80zfFfgDfIVCraBnpd61wOzjrSeoQt99Gioex6a3X6jW9d1at7q9ZsfX7JiMBDs6Ru4/5EFb72/aVjz4ehx17MWvnDl+o3s6Eynz1+6yhf6ykUyHwRxPaTsPLwt45aQsuxSDkdij8z/k5i+GNEw/vbR94pSfm3NBnGDuvpGw5w5+w3o3DPUYJhlbF8DncmalvjTK6vFevgyXcFeFBRiwV2wTbZ//T21gVIKvL5goWAbMplMy869Ymaf8vjbvv6OPoQo+VBX30hfU2gOxh1jJjifD6freiyuPPXi6yLGuvpGvk5YLpI2NPKNB3HI2by9xJcQKUPKsktZ1/XO7j76PQU9i+iXY6deeWe9eIYMDAbeen/TmPum19U3jhw7cd6yVWcuXBZjVfsN8p2ErFRd1+1r4PMwEAy/9f6mOxsnkVPEGux7UVCITnZB24QjsceXrBBFxu+1Lzhpg+FnHXOWviyiJgvX1TdSNkPXdcp4iAfLvg30ajyubPhs2x8nPUEHdNnKdzq7+/iN5SLJFRoK+cbDcHthqNbhn5AypOwBKTsczdiMsjeDgeDTy980J3/BxxMEIGVIGVL2xKnqqJGUb6Ug/akXX48Jvzpx9H5sJAEBSBlShpQlOBHL1IS2ax1/mDBj4sxFO/fsN8zULtMeUI3rBCBlSBlSdv00ww5AwDkBSBlShpSdny/YEgRcJwApQ8qQsuunGXYAAs4JQMrek7L46JAiylkH31rwOCjnpwq2BIHKEICUvSdlNmlxBeG5qUk8OLUypxn2AgLOCUDK3pMym7S4Aj24Wnx8tfiYVHoiHz0mlZ5jHQqFgrklEAgMDQ0N68eUiqrFFTUWVyLRmPNBiS1BwM8EIGXvSVktbaHHVPPDquO5JZZbormFXUw6JhcPDQ0NDg4ODAxUXsrmn5kVccYWfLBIEXVW5S0tO/bcNqqped5z277+Lt/No6vSMOy0XAQgZe9JmQRa9H/JvOzfSG4J55ZQbgkGgwYR9+eWvr6+3t5eSLlc515x9YifLhOmL7hy/UZx9eBd0hKAlL0nZRJo0f8l87J/g7klkFuGcgtFxKKIe3JLd3d3V1eXR6XMZ2C+m8DxBvIX0ul0d9/A6vWbKWR2+OA7+fuFFhIBSNl7Ui5x7IoTNm7NwkjTNUO6BphIJDRNoxyJoiiUZY7FYpRohpRL5F+ut2cymY8/3zGiYfyBn46Wq07UIwMBSBlSzppZfinbP/de1/WOzm6+k5zh1mXimWYZKVPa+p/Pl+Pbj40cO3Hdx58r6s0Hs4o1mMuZTOa9j7bcMWZC65kL4qsXLl9tGDf5vY+20P3qMpnMmQuX5yx9+bZRTSMaxk+cuWjX3v3JVIreYk6d073KxPvMiZXrun7oSGtdfaPDxywZ3os/pSUAKUPK3pCy/XPvL125Tk+B4pvwjhw70fL5QzZSnjhzkaGS1es3szTtz+HWMxfuGDOB/Usbf9qyix7zTH8eOtI6cuxEbiEV3v7gE9rFcKUcDIUXv/AX8SaZ9i3Eq14hAClDyt6Qcl19Y77n3lNEKT4Og557/8TSl8y3SbORcl1944TpC06cPp9Op691dD44azE9jNnJyRyLK08sfWnKnGc4w0sPAH3mpbfoxkC9/YP3Nc8b3dS87+BhemYHNZKt7VzK4u32bR6b5KTZ2EZCApAypOwNKd/1wKxLV24+c97wvZ7uV7lr737xBNu6/Zs/TJhxtb1TXKnruo2UH5y1uLd/kLdv2bFnRMP4o61neY19Ydfe/SMaxh8+fpo2O3uxrWHcZE747jt42HyD4wM/HR3RMJ7yD86lvHHrV5a3frdvHl71CgFIGVL2hpTFhz4YpHz4+GlDToD+NCd57aUs7oIezFxX38iSLXhKUyz8+nsbKYO89qOtYuBs+WFAzwClBx05l3LLjj02ieaC7cQGkhOAlCFlSFk3C7EIKSdTqZVvf3hf87ze/sFgKDxlzjOftuzi899GyvQkPXMbDJ89YlWQMtOovQKkDCl7XspnL7bV3/3wvoOHnZyflnI0C5EmVNTf/fDZi21OqqVtjp86N3LsxAM/HT1+6twfJz1BD3iml+hRdYYcy76Dh0c0jKfH2ZnbcOVax/9MzT4beygYct4GbOl1ApAypOx5KVNYOmH6gkNHWv/54E77c9JGynOWvjwwFNR1XVG1L3bsGTl2ouWlQpv66XLf08vfXPHGupVvfyjO3Gi/0X3XA7PEq5HHTp6956HZ9zw0m9xNcfHopuZjJ8+m0+lT5y5OmL7A8ERtXdeTqdTq9ZvHTXrcnC63aRhe8hABSBlS9ryUacauebYZ54jJd+a8MwehFKUaNhAvLTo/peny4B1jJhiS0ZlMpmXn3hEN48W93DaqadvX3/FTtz9t2SW+Orqpedykx7mR1AZuKqYnOz8o3toSUoaUa0HK9LuMectWiWouWsp3Nk56btXqjs7uIk5miojFS3xcSTqd/vGX45OfWDqiYfxto5rMv3BRVG3dx5+PHDvxtlFN8597paOze+PWrwxSRqTMPGu1AClDyrJLuQLnnjmfW/ROz1y43DBusniJr+iq8EZ/EoCUIWVI2Xr2xXCNkE6nKU1smO883Hqwvc8JQMqQMqRcqpTFnHW+n3f7XDTovnMCkDKkDCmXR8q3jWqatfCFU+cu8oU75+chtgQBIpBOZyBlSNldKSuqRo+DSqfTOPFAAATsCaTTaZKyomqKqg3rTrk1szGk7KKUVS3BUk4kC8wgth+seBUE/EAgkUyylGtGssPtCKRcCSlHY/G4ovjhpEIfQaAUAnFFicbisbji2zBZ1RKQsutSjitqNBYPR6KlDFa8FwT8QCAcieYiGBVSpseQxrPhnEIPQtI0LZFI0AOS6LkcWXnlFvGBSi6NE9qj5X9/V+Iuxdbf6pFbTx6h9AVJORKN0Z2FS2w/3g4CtUpA0xKRaAxSRqScNbNLj4NiKdO1vlA4UqunE/oFAqUTCIUjmHqB9MXNWNk9KfO1PspgRGOx0scuagCB2iMQjcUod+HzhDKkXCEpxxWVg2VFVWvvjEKPQKAUAoqqIkzmSRpIX7ibvqBImSbGUbAcCke0RKKUEYz3gkAtEdASiVA4IobJfr7Kh0i5EpGyIbMcjkSDoTBmyNWSVtCXognEFSUYCocjUWSTESlnZ2HcVLKbF/oYtKJqPA2DvByNxfGL5KJPZrzR6wQymUw0FmcjY9IFuwLpC9fTF8SafjZq8HIgGIrF4qlUyusnGNoPAs4JpFKpWCweCIbMRvZ54oJcASlXSMqcxBC9HApHgqEwjc5YLK5qWjKZRPjs/PTGlp4gkMlkksmkqmmxXGhMA57yyDwxOa74+gcjHCYjp1yhnDIT53g5Fs/+nDQSzU4DIjWTnQPBEP0bCgTxDwRqgAAPaXJxMBQWdRyLK6RjxMhsCUTKlYuUCbrBy6xmsjMLOhgK4x8I1AyBUDhCLqZretFYnO5xASOzi7kAKVdayjxJ7p/3hqf5yxw1R6Ixip3DkSj+gUAtEaCxTcmKWFyhABlGZhGLBUi5ClKmA8Ahs2hnEjTFEfgvCNQMARIxuxg6Fi1sKEPKVZOyqGaDoEnT+C8I1BgBGuf0X4OJ8CcTgJSrLGU+EpzWEAcuyiBQSwTE0Y5yPgKQskRSzneQsB4EQMA/BCBlSDnhn+GOnoKA/AQgZUgZUgYBEJCIAKQMKUs0HOWPYtBCEHCbAKQMKUPKIAACEhGAlCFliYaj2zEI6gcB+QlAypAypAwCICARAUgZUpZoOMofxaCFIOA2AUgZUoaUQQAEJCIAKUPKEg1Ht2MQ1A8C8hOAlCFlSBkEQEAiApAypCzRcJQ/ikELQcBtApAypAwpgwAISEQAUoaUJRqObscgqB8E5CcAKUPKkDIIgIBEBCBlSFmi4Sh/FIMWgoDbBCBlSBlSBgEQkIgApAwpSzQc3Y5BUD8IyE8AUoaUIWUQAAGJCEDKkLJEw1H+KAYtBAG3CUDKkDKkDAIgIBEBSBlSlmg4uh2DoH4QkJ8ApAwpQ8ogAAISEYCUIWWJhqP8UQxaCAJuE4CUIWVIGQRAQCICkDKkLNFwdDsGQf0gID8BSBlShpRBAAQkIgApQ8oSDUf5oxi0EATcJgApQ8qQMgiAgEQEIGVIWaLh6HYMgvpBQH4CkDKkDCmDAAhIRABShpQlGo7yRzFoIQi4TQBShpQhZRAAAYkIQMqQskTD0e0YBPWDgPwEIGVIGVIGARCQiACkDClLNBzlj2LQQhBwmwCkDClDyiAAAhIRgJQhZYmGo9sxCOoHAfkJQMqQMqQMAiAgEQFIGVKWaDjKH8WghSDgNgFIGVKGlEEABCQiAClDyhINR7djENQPAvITgJQhZUgZBEBAIgKQMqQs0XCUP4pBC0HAbQKQMqQMKYMACEhEAFKGlCUajm7HIKgfBOQnAClDypAyCICARAQgZUhZouEofxSDFoKA2wQgZUgZUgYBEJCIAKQMKUs0HN2OQVA/CMhPAFKGlCFlEAABiQhAypCyRMNR/igGLQQBtwlAypAypAwCICARAUgZUpZoOLodg6B+EJCfAKQMKUPKIAACEhGAlCFliYaj/FEMWggCbhOAlCFlSBkEQEAiApAypCzRcHQ7BkH9ICA/AUgZUoaUQQAEJCIAKUPKEg1H+aMYtBAE3CYAKUPKkDIIgIBEBCBlSFmi4eh2DIL6QUB+ApAypAwpgwAISEQAUoaUJRqO8kcxaCEIuE0AUoaUIWUQAAGJCEDKkLJEw9HtGAT1g4D8BCBlSBlSBgEQkIgApAwpSzQc5Y9i0EIQcJsApAwpQ8ogAAISEYCUIWWJhqPbMQjqBwH5CUDKkDKkDAIgIBEBSBlSlmg4yh/FoIUg4DYBSBlShpRBAAQkIgApQ8oSDUe3YxDUDwLyE4CUIWVIGQRAQCICkDKkLNFwlD+KQQtBwG0CkDKkDCmDAAhIRKDGpdzWduWpp589euy4fmvJCEvWx7kllVuSuSWRSGiapuYWRVHi8Xgst0Sj0Ugk4vaHJOoHARDwOYEal/LhI0cnTZl++MjRW07WBSdnbjk5DSn7/DRA90FAHgKQctbMkLI8IxItAQGfE6hNKQ8NBebOXzxpynTzvxdefCkWi1G8nEwmD/xwcOGipx+e3Pzw5OZFTy098MOPWm5B+sLnJwa6DwLVIuBfKafT6b99uX3SlOkPT25+aNI0+vfw5OYvWr4kI6uqipxytcYl9gsCviVQm1LmDLJNTvn8+QvNjzz65NyFx4+fSCQSqqp++933j8yc/ficee0dHYiUfXtKoOMgUF0C/pXyJ59+NmXajKNHj4s55U83b3lo0rSDh36ClKs7LrF3EPAtAf9K+Z3V7z05b9HAwKAo5aPHjk+eOn3r5y2Qsm9PCXQcBKpLAFK2kHLL37ZBytUdl9g7GKNy6wAAGxlJREFUCPiWgC+k/Pc933KWmecpf7j+I0P6IpFIbPpk8+Sp048cPQYp+/aUQMdBoLoEalzKZ8+db37k0eeef7Gnt5e8zFI+duzElGkz5i1YfPHiJbrQ9/e/7502fdbCxU/39fVBytUdl9g7CPiWQI1LORgMPvX0s+JsZZ6nnEgk1qx9n2Yo85S4adNn/fDjQfzM2rfnAzoOAlUnUONS1nW9s7Nr1St/mTZ9FqmZpZzJZBRF2bFz9xNPLnho0rQp02a89PIrV65cxb0vqj4o0QAQ8DOB2pcyZ5MN6YtMBve+kOjOWH4+CdF3EBAJQMq49wXUDAIgIBEBSBlSlmg4ivECyiDgTwKQMqQMKYMACEhEAFKGlCUajv6MjNBrEBAJQMqQMqQMAiAgEQFIGVKWaDiK8QLKIOBPApAypAwpgwAISEQAUoaUJRqO/oyM0GsQEAlAypAypAwCICARAUgZUpZoOIrxAsog4E8CkDKkDCmDAAhIRABShpQlGo7+jIzQaxAQCUDKkDKkDAIgIBEBSBlSlmg4ivECyiDgTwKQMqQMKYMACEhEAFKGlCUajv6MjNBrEBAJQMqQMqQMAiAgEQFIGVKWaDiK8QLKIOBPApAypAwpgwAISEQAUoaUJRqO/oyM0GsQEAlAypAypAwCICARAUgZUpZoOIrxAsog4E8CkDKkDCmDAAhIRABShpQlGo7+jIzQaxAQCUDKkDKkDAIgIBEBSBlSlmg4ivECyiDgTwKQMqQMKYMACEhEAFKGlCUajv6MjNBrEBAJQMqQMqQMAiAgEQFIGVKWaDiK8QLKIOBPApAypAwpgwAISEQAUoaUJRqO/oyM0GsQEAlAypAypAwCICARAUgZUpZoOIrxAsog4E8CkDKkDCmDAAhIRABShpQlGo7+jIzQaxAQCUDKkDKkDAIgIBEBSBlSlmg4ivECyiDgTwKQMqQMKYMACEhEAFKGlCUajv6MjNBrEBAJQMqQMqQMAiAgEQFIGVKWaDiK8QLKIOBPApAypAwpgwAISEQAUoaUJRqO/oyM0GsQEAlAypAypAwCICARAUgZUpZoOIrxAsog4E8CkDKkDCmDAAhIRABShpQlGo7+jIzQaxAQCUDKkDKkDAIgIBEBSBlSlmg4ivECyiDgTwKQMqQMKYMACEhEAFKGlCUajv6MjNBrEBAJQMqQMqQMAiAgEQFIGVKWaDiK8QLKIOBPApAypAwpgwAISEQAUoaUJRqO/oyM0GsQEAlAypAypAwCICARAUgZUpZoOIrxAsog4E8CkDKkDCmDAAhIRABShpQlGo7+jIzQaxAQCUDKkDKkDAIgIBEBSBlSlmg4ivECyiDgTwKQMqQMKYMACEhEAFKGlCUajv6MjNBrEBAJQMqQMqQMAiAgEQFIGVKWaDiK8QLKIOBPApAypAwpgwAISEQAUoaUJRqO/oyM0GsQEAlAypAypAwCICARAUgZUpZoOIrxAsog4E8CkDKkDCmDAAhIRABShpQlGo7+jIzQaxAQCUDKkDKkDAIgIBEBSBlSlmg4ivECyiDgTwKQMqQMKYMACEhEAFKGlCUajv6MjNBrEBAJQMqQMqQMAiAgEQFIGVKWaDiK8QLKIOBPApAypAwpgwAISEQAUoaUJRqO/oyM0GsQEAlAypAypAwCICARAUgZUpZoOIrxAsog4E8CkDKkDCmDAAhIRABShpQlGo7+jIzQaxAQCUDKkDKkDAIgIBEBSBlSlmg4ivECyiDgTwKQMqQMKYMACEhEAFKGlCUajv6MjNBrEBAJQMqQMqQMAiAgEQFIGVKWaDiK8QLKIOBPApAypAwpgwAISEQAUoaUJRqO/oyM0GsQEAlAypAypAwCICARAUgZUpZoOIrxAsog4E8CkDKkDCmDAAhIRABShpQlGo7+jIzQaxAQCUDKkDKkDAIgIBEBSBlSlmg4ivECyiDgTwKQMqQMKYMACEhEAFKGlCUajv6MjNBrEBAJQMqQMqQMAiAgEQFIGVKWaDiK8QLKIOBPApAypAwpgwAISEQAUoaUJRqO/oyM0GsQEAlAypAypAwCICARAUgZUpZoOIrxAsog4E8CkDKkDCmDAAhIRABShpQlGo7+jIzQaxAQCUDKkDKkDAIgIBEBSBlSlmg4ivECyiDgTwKQMqQMKYMACEhEAFKGlCUajv6MjNBrEBAJQMqQMqQMAiAgEQFIGVKWaDiK8QLKIOBPApAypAwpgwAISEQAUoaUJRqO/oyM0GsQEAlAypAypAwCICARAUgZUpZoOIrxAsog4E8CkDKkDCmDAAhIRABShpQlGo7+jIzQaxAQCUDKkDKkDAIgIBEB70k5XNoSEpbgrSWQW4Zyy+Dg4MDAQH9u6evr6+3t7ckt3d3dXV1d4gcayiAAAiBQdgLek3KstCUqLJFbC3medB0MBgOBQD5Bl/0AoEIQAAEQEAl4T8pqaYsiLPFbC3medB2JRMLhcD5Bi+xQBgEQAIGyE/CelBOlLZqwsN5J1KToWCwWjUYphiY7U5KDwueyHwBUCAIgAAIiAe9JOVXakhQW1juJmhytKEo8HufYmQJntrPIDmUQAAEQKDsB70k5U9qSnWxxa2G9k6jJ0ZqmqarKsTMFzhQ7h8Phsh8AVAgCIAACIgHvSVkvbRGVfkvOabIzq5m8TGo2RM0iO5RBAARAoOwEIOWsmSHlsg8sVAgCIFAcAUgZUpZo2nxxgxjvAoFaIgApQ8qQMgiAgEQEIGVIWaLhWEvxDvoCAsURgJQhZUgZBEBAIgKQ8vCkPIQFBEAABNwkACmnhzX7orT5eHg3CIAACBQgAClDygWGCF4GARCoJAFIGVKu5HjDvkAABAoQgJQh5QJDBC+DAAhUkgCkDClXcrxhXyAAAgUIQMqQcoEhgpdBAAQqSQBShpQrOd6wLxAAgQIEIGVIucAQwcsgAAKVJAApQ8qVHG/YFwiAQAECkDKkXGCI4GUQAIFKEoCUIeVKjjfsCwRAoAAB70lZfHRIEeWsg28tRTwOqgBOvAwCIAACpRHwnpTZpMUVhOemJot4cGpptPFuEAABEChAwHtSZpMWV6AHV4uPrxYfk0pP5KPHpNJzrEOhUDC3BAKBoaGhAjjxMgiAAAiURsB7UlZLW+gx1fyw6nhuieWWaG5hF5OOycVDQ0ODg4MDAwOl0ca7QQAEQKAAAe9JmQRa9H/JvOzfSG4J55ZQbgkGgwYR9+eWvr6+3t7eAjjxMgiAAAiURsB7UiaBFv1fMi/7N5hbArllKLdQRCyKuCe3dHd3d3V1lUYb7wYBEACBAgS8J+UCHSr0sjhh49YsjDRdM6RrgIlEQtM0ypEoikJZ5lgsRonmQtXjdRAAARAoiQCknDUzpFzSIMKbQQAEykcAUq6olGNxtaOz/8r17stXu/APBLxO4Mr17o7O/lhcHa6Rrgf1ebv1sRv1339YO//GbtTnf63fCA0XhnF7SLlyUh4cCrdd6x4cCkdjSlzR8A8EvE4gGlN4VBvVkv/vY136f26oHRcbPlfGbNCPl3btCVKukJTjinblencylco/VvEKCHiSQDKVunK9O644ipevB/UxtWtkEvQfPiopXoaUKyTlzp7BQDDiyXMOjQaBQgQCwUhnz2ChrbKvL/p7zcbIYsj81B4nMKy3gZQrJOWr13uiMcX6IGAtCHicQDSmXL3e46QTNZZHFkUslu/a6ASG9TaQcoWkfPlql6Jo1gcBa0HA4wQURbt81VEmVTRXbZeLPqSQMqRc9ODBG0HgJgFI2fwBU/TggJQh5aIHD94IAjcJQMqQcvEnQ7V+0Yf0RfHHDO+UngCkDCkXP0gh5eLZ4Z0gkIcApAwp5xkaDlZDyg4gYRMQGB4BSBlSHt6IEbeGlEUaKINAWQhAypBy8QMJUi6eHd4JAnkI1JiUd17QE2l9w/GSfueSB1Xh1Zh9gdkXhUcJtgABewKQMiJl+xFi9yoiZTs6eA0EiiJQSSlvOJ4NY2kpPZ41y/T3H+qIlM2jwOZB1b8zbz2sNfJLeefubzdv3W7+t/e7A8PqKTYGgYoRqJiUd17I9ulo583EwpO79asB/cV9JeUZzF6GlM0jx9dSZhxnz13a+sWO6+03eA0KICAngcpI+cnden8s++/J3XktTNYmSlcDv2624bgeS2TTxFcDNxEa6hEDcF1HTtk40CDlLBGzlM+eu7R56/ZDPx8Tge397kDLtt1DgaCu63u/O7D3uwPX229s/WIHxdpnz10SNz708zGOwQ31iJuZy3u/O8BvdBiznz13qWXbbupFy7bd3T199CVAfDv1iGoW1+u6PhQItmzbTS+ZP5zEPnL3qdlxRRG/bRi6Kb7RXLlNe8xMsIYJVFLKsUTe0Pho568yfXFf1sLsZXYuRdmGV0nlOy/clDgiZT6yXICUsyjMUibd7Nz9bVy5ecM5MhfrjNTJCjv08zEuk7LZX+Qmg7D4ABgKh34+xnKnN/IeDVuKf1L7d+7+9np7Z8u23du++vuhn48d+vkYt0FsnqEj5j/3fneAe21o/PX2G//Yf4h3/Y/9h/jrheFjTHwjweTG6Lpu0x6uHAVLApWRMmV7qQFsW04+kGc5s2FIDZOUxXddDdwMuikAF1+ClM1HGVLOMjFL2SAO8zZ7vzsgWpjURuYlH7FbqSpRSebDkG+NGJvn24baRnE9NYM+S1h8YtuoErG/5taKOxK3FNeby4aPMfEjgVtITOzbY64Za0QCFZPy7z/M5i76Yzd3LkbNZpOSiCn+FcvkcZay+SVzVax+5wWRz7DKmBIn75Q4S/WIsR4Fv2LgvPe7A+KfpCSKag0+Mgvd+bgxV2X5Xm4/+Y6bQR8b/Cq/VxQxvWXz1u3ip4hhS/Hjh18yF0Qmho8TsQ1imSoR22OuFmtEApWUMmuR08ek3aOdYot+LUPKv7IooYRIOQvPrAlCypYhc4na4pdoS1HKYlKYs8MOvcaK5Dc6CbG5/ZZSFrPbXK1oYWq8Oe1LXRObZGgMyVSskz+oxI80cxAtvoXLIl7aNf5rJlAVKf/+w2xyOZa4mYWwD2/N4TAiZfNxtFkDKWfhsNQMpHg9XUmjS3y0jY2UHYa3hn3xBTf2mvO8B7fTUsr8qnmPhjVk0nyfH5Q1Zi/TxmLKW2QiXsfbvHW72Cnn7TE0D3/+8yFPMkjZrF2OqX//YXbeRSKdnYDMK1nKhmQ0pUdKnwFd9MBA+sJj6Qtd1ynEO/TzMZprIR57UUC6rpOhKNYrWjokMjFgdOh33qOllMW2iV2wLNtvzDsy59zFDI/4vcG8F/td0PYcvIs0uCoCJYqeX6JmmGfOiBt4ulwZKb+4LzubQpwPRykLVu3VwK+zL1i+VLCR8u8/zFbL6Wkq0/w5QyXD+rPoAwope0/KpJ7NW7ebg0dRyoav5/QnR5TORwzZimNPSoM4qYddaSll8pS5C9Sws+cuiTND+PIgvSrOBqF6uD1kRnovO5RFKfIxEzBcJjVvQCg2b93ONMRtDFNfxJc42cItEV+tgXJlpMwBLxNjk7IuDZllnoxsL2Xx4uHRzmxYDSkzZCogfZHlwFIz0OEQ2HyGGxLHZncU3MC8L2oJ51gN09ost6eV3P58UuZPF65c7JGYdGbn8u7EjojvMtR59twlUcQsR96jmMU2vNeQ3+DvKIa3cJMQKTMKmwLbs+YLNhDsX0KkLG+kbHPkKGQTY0naWBSQzdv9+RIZ2WDwgtGxP1kNt9cVi5Q9pPLhMuTtIWVPSjlfVhdS5pFtLlh+khkSI+Z3YY0TApCy+dPCCTfLbSBl70nZfOWNDy2kzCjMBXOkTJo2xM7mN2JNQQKQMqRccJDk3UD+u8TlbXrud8CUDLW8+i/ONLCpxM8vmXPK5hSQn/kU3XdIGVIuevDonpZy8d3GO0HATQKQMqRc/PiClItnh3eCQB4CkDKknGdoOFjtUMqapqmqqihKPB6P5ZZoNBqJRBzswXqTy1e7FEWzfg1rQcDjBCBlt6Ws5ZZEIpHMLTRrOHtBLLeIWnNpKFV/njKk7NKhRbU1SQBShpSLH9jiR8qtj5k0fQjQR1AikaAPJUTKxVPGO31GAFKGlIsf8kVImTIYJaYvrl7vicZu3pm++NbjnSAgJYFoTLl6vcdJ0+7a+Ostgcwiq5E16/WxG53AsN6G5ynHc4uiKKqqIn2RJcCRclmk3NkzGAgWn5K2PnpYCwJyEAgEI509g07asvjv+u/X176Xl+51AsN6G0g5m8OwT1+URcpxRb1yvSeZuvVsdOvDgbUg4D0CyVTq6vWeuLPr2DdC+pgNNS7lMR/p3SUEYJByhaSs63r/YKjtWvfgUDgaU+KKhn8g4HUC0ZgyGAhnR3Ug7PzDpLVb/4/1uXi5xkLmXHf+Y71+fsA5DIstIWULKdO1Pkpf8Ky4EnPKxF5LJHv7g9faey9f7cI/EPA6gWvtvb39QS2RtFCL7arOsL7wm2zitUaSyB9mOzJ2Y7ZTpcTIxEyUspJbKKecyC0+nRKXT8rRaNR2pOFFEAABECiVQDS3xGKxeDzuOylnMhmaFWfIKUPKpQ4rvB8EQKBYAsOVsjijLJPJFLvbAu+r0I9HDFJOpVLJZJK+I9DsC56AwT/qK9BwvAwCIAACpRGIRqMkHIqU1dyiaRqnL9iPFFNCyqXxxrtBAARAwJaA76Ss605vFGc5VdkWJl4EARAAgVIJkJSl+uWIruscnpsLvyu1x6VJ2b2UTen9Qg0gAAJeJ5DJZCBlSssYfz+S71pfOo1ff3h92KP9ICAvgXQ6zVKWZ+qFFJEyS9lwrS+ZHPaUTHmPP1oGAiAgGYFkMml/lS+ZTFIC4WY4mU6LF/rc6405a8FrKpS+MEuZfmytqqp73UbNIAACPiegqirNUM439aL2pWw5K44mxok38BR/14e0ss9PG3QfBFwiICaUxdwFzYcTf8uXSqUqOR+uoukLlrL5tkQcLBMdipRjsVgikXDpkKBaEAABPxNIJBJi7oJv2skzlO3DZFfjRU5WmAtlSF84nBXHUua0MnvZ1c77eVCi7yDgWwKZTIaNLFvuwvVIeVhS5tnKnMGIxWKKgtvV+/bcQcdBwBUCiqKwlM25iyo+nY96aw6QeY3rkTL92Drf76353spIYrgyMFEpCPiSgKZpPBOuuDDZ7a/vrGBzofxSLphWtgyWo9Eopsf58vRBp0GgzASSySQZ2XxnOPGWF1VMKFcifWGfwRCDZZ6DYc4sR6NRzJAr8/BEdSDgMwKqqopGNoTJNvMu0pWaoUwHxBwg85ryRMr5pJxvDoYhWOYkRjQaVRTF7S8OPhul6C4I+IJAOp1WFEW8UScZmSdd2IfJNS7lfBkMy8wyXfETvRyJRBRFwS+wfXEmoZMgUDKBdDqtqio9YcSQSiYjmx81Ut3cRYXSF/mCZY7Jaao2316ZgmVKYogzMeiDLnJrURRF07RUKoXwueShiwpAoEYIZDKZVCqlaZqiKLdUEeEY2ZBKJiNbhsn8m5EKh8nVkbKTYFn0Mt1Yj6awGLwczi0hYQn+dglgAQEPEmhvb+/s7Ozp6enr6xsYGBgaGvJgJ9xt8m9P9KDggBBpIZ+RLVPJPA2u6mGyLFIWL/dxvExPAeDf+OVTMx2AgnY2HEL8CQIyE+jo6Ojq6urt7e3v7x8cHAwEAjK3toptM7tYNLIhQOb7JpsTFyxl/vpueROiynwp5zaYC2W70KfnlsxvF+4z79g+iSHml2OxGOGm517TR2I+O4uHLRQKVXEAYdcg4JAApGwAZTiLxT/FE98QHZvnWvBPRYpIXFTGyJWLlA1pZTGDYZiGIV7x4ySGmF/mX2BbqjkSiYgHicviUUQZBCQncOPGje7ubs5dBIO/+XoueeNdbR6f0WKBXcwX9FjH4n3gOEC2NLI5cWHIJteglG28bAiWnXjZUs1i4MzHSTx4KIOAJwhQQplzF6HQzTypJxpfgUby2c0F/ups1rE4+40fjWq4uMdGznd9r2JGrmikbCNlDpY5uWzwMofM9O2DUxmimsXAWTxCfNhQAAGvEKCEMl3iCwaD4XDYKy2vTDvFE5zLNBeAb2ohZpA5RqZfqDkxcrXC5EpLuTgv0z3k2MucyhDVbLCzOFWDjxkKIOAVApS7oEt8oVBI/FbulS5UoJ2ihQ0u5uiYdWxIWfCVPcsYuYpGrr6ULZPL5niZvWypZoOdLQVtPn5YAwLSEujp6env7x8aGqIwWfxKLm2bq9Uwioj5v/xl2qxjDpCHa+RK5i6qIGVzsOzcywXVbJg/x8fJUKjW6MF+QcAhAUhZBGU4f81/iiIWXczRsahjyY1cHSmbvczT46hgvu7HKWbRy2LULE5qNhwhh6Y2H2msAYFqEejt7R0YGAgEApS74CkE1WqPPPu1PLtpJUmA/8vpY9HINO/W8mlPbKHfzt3N6BVfWIDmQpnnKYtdM3TbECyL1/3EVIaoZns784GxOYR4CQSkJdDX1zc4OMi5CzFDKm2bK9wwPscNBUsXi9GxmEQW51qQlM1qEsVVmbLZxbzGRSmbg2XnXjao2WBn8f6fhqOFP0HAKwQoocxhsuEruVd6UZl2ihamMv0qmP8rRsfyG7lq6Qv6wDF/KJWiZv59tvkgWa6pzIjBXkCgCAKQMkGzPHMtV7KCxUIpOq7wxT0xBue42FxwN1IuzsvUSgNrc+wsHpjhytrykGMlCFSSACWUw+FwNBqNx+PiBatKNkPCfZlPbcMasxzMauP0cb6URRWNXOVI2bmXDVnmfGrm42E4TvgTBLxFgBLKkUiEnh0sXqryVkcq0Fo+682Fgjo2z0emr+9i3Fr5srnZvKYSkbKNl82pDPpY4/aJBfPxwBoQ8C6BoaGhUCjEYbLhOpV3+1WBlota4LIhNLYJkKsbI5MPudnmQuWkbHndjzPOlkDNzTWsqcDhxy5AwCUCkLJDsIaz3vynpT3YLeZC5eNi8x7NveA1FZWyfcicL2om4txiFECgNggEAoFwOMy5C8Ocgdroo3u9sBQxrTRbmNeY5VitNTZkqiBl+5CZ8NkQ55dseoWXQEB+ApCy82PEZ71Ngc2br1At/1ru16bv1ZEytTIfO3G9zTHASyDgaQLBYDASidC8i0QiYf6Ng6d7V7HGi7rIV7bUYnVXSipl52om1hU7zNgRCFSAAKRcNOR88jWvr655bfYutZSHq2YD96KPK94IAtUlACk74W84353/aSNEGV7ygJQZk3Po2BIEPE2A5sMpiqJpWjKZzDed1tN9rHzj2SSSF2yk/P8DqfwLmw7XclQAAAAASUVORK5CYII=;" vertex="1" parent="1">
          <mxGeometry x="430" y="30" width="476" height="607" as="geometry" />
        </mxCell>
        <mxCell id="esjmUyft8LQVIh04YUm3-3" value="" style="shape=flexArrow;endArrow=classic;html=1;rounded=0;" edge="1" parent="1">
          <mxGeometry width="50" height="50" relative="1" as="geometry">
            <mxPoint x="210" y="310" as="sourcePoint" />
            <mxPoint x="410" y="310" as="targetPoint" />
          </mxGeometry>
        </mxCell>
        <mxCell id="esjmUyft8LQVIh04YUm3-4" value="&lt;font size=&quot;1&quot; style=&quot;&quot;&gt;&lt;b style=&quot;font-size: 20px;&quot;&gt;click&lt;/b&gt;&lt;/font&gt;" style="text;html=1;align=center;verticalAlign=middle;resizable=0;points=[];autosize=1;strokeColor=none;fillColor=none;" vertex="1" parent="1">
          <mxGeometry x="260" y="240" width="70" height="40" as="geometry" />
        </mxCell>
      </root>
    </mxGraphModel>
  </diagram>
</mxfile>
